<svg id="Layer_1" data-name="Layer 1" xmlns="http://www.w3.org/2000/svg" viewBox="0 0 483 140.25"><rect width="483" height="140.25" style="fill:none"/><path d="M448.48,296.1a16.11,16.11,0,0,1-2.75-9.11v-.14c0-8.55,6.27-15.53,15.3-15.53h.15c9,0,15.3,7,15.3,15.53V287a17.51,17.51,0,0,1-1.53,7.34l-3.08-2.71-6.93,7.92c6.05,1,12.32,1.78,18.76,2.31h0a25.29,25.29,0,0,0,4.52-14.5v-.14c0-14.5-11.29-26.24-27-26.24S434,272.85,434,287.35v.15a27.69,27.69,0,0,0,.36,4.4C438.86,293.46,443.58,294.86,448.48,296.1Z" transform="translate(-154.37 -236.35)" style="fill:#fff"/><path d="M526.65,301.79q5.26-.44,10.43-1.06a29.92,29.92,0,0,0,1.57-10.1V261.85H527.43v29.21c0,5.61-2,9.32-5.5,11.08C523.5,302,525.07,301.92,526.65,301.79Z" transform="translate(-154.37 -236.35)" style="fill:#fff"/><path d="M557.75,297.42V261.85H546.52v37.58C550.33,298.83,554.06,298.16,557.75,297.42Z" transform="translate(-154.37 -236.35)" style="fill:#fff"/><path d="M577.63,292.54V280.43l7.47,9.81q5.42-1.78,10.54-3.77L576.9,261.85H566.56v33.62Q572.22,294.12,577.63,292.54Z" transform="translate(-154.37 -236.35)" style="fill:#fff"/><path d="M512.07,302.6c-4.21-1.54-6.64-5.54-6.64-11.9V261.85H494.21V291a28,28,0,0,0,2.21,11.59Q504.13,302.82,512.07,302.6Z" transform="translate(-154.37 -236.35)" style="fill:#fff"/><path d="M566.56,300.53v12.32h11.07V298.56Q572.17,299.63,566.56,300.53Z" transform="translate(-154.37 -236.35)" style="fill:#fff"/><path d="M546.52,303.22v9.63h11.23v-11Q552.2,302.6,546.52,303.22Z" transform="translate(-154.37 -236.35)" style="fill:#fff"/><path d="M534.81,304.31c-12.59,1-24.89,1.34-36.79,1.12,3.73,5.46,10,8.22,18.26,8.22,8.77,0,15.47-3.11,19.16-9.39Z" transform="translate(-154.37 -236.35)" style="fill:#fff"/><path d="M458.86,302.51l-.26,0q-11.6-1.58-22.22-3.93c4.11,9,13.2,15.18,24.65,15.18a28.1,28.1,0,0,0,15.22-4.44l8.06,7.19,7.18-8.13-3.9-3.25C477.65,304.63,468,303.75,458.86,302.51Z" transform="translate(-154.37 -236.35)" style="fill:#fff"/><path d="M600.8,293.25h0q-5.53,1.47-11.27,2.8l12.8,16.8h9.55V290.08q-5.43,1.67-11.08,3.17Z" transform="translate(-154.37 -236.35)" style="fill:#fff"/><path d="M600.8,261.85v22.54q5.75-2.42,11.08-5.08V261.85Z" transform="translate(-154.37 -236.35)" style="fill:#fff"/><path d="M272.51,277.28q5.91-.36,11.71-.57a14.12,14.12,0,0,1,11-5.39c5.9,0,9.4,1.89,13.34,5.17L315.6,268c-5.32-4.52-10.85-7-20-7a26.23,26.23,0,0,0-24.84,16.42Z" transform="translate(-154.37 -236.35)" style="fill:#fff"/><path d="M336.61,278a14.81,14.81,0,0,1,12.62-6.67,15.13,15.13,0,0,1,14.43,10.18q6.49,1.13,12.55,2.49c-1.53-13-12.28-23-26.83-23-11.8,0-21.18,6.68-25.14,16.12Q330.54,277.45,336.61,278Z" transform="translate(-154.37 -236.35)" style="fill:#fff"/><path d="M248.15,279.42V261.85H236.93v19C240.61,280.34,244.36,279.86,248.15,279.42Z" transform="translate(-154.37 -236.35)" style="fill:#fff"/><path d="M416.59,293.25h0l-23.9-31.4H382.35v23.61c3.86,1,7.56,2,11.07,3.15v-8.18l24.7,32.42h9.55v-16.4q-5.73-1.49-11.08-3.2Z" transform="translate(-154.37 -236.35)" style="fill:#fff"/><path d="M382.35,312.85h11.07v-15c-3.51-1.71-7.21-3.31-11.07-4.81Z" transform="translate(-154.37 -236.35)" style="fill:#fff"/><path d="M416.59,261.85v22.54q5.24,2.69,11.08,5V261.85Z" transform="translate(-154.37 -236.35)" style="fill:#fff"/><path d="M364.68,287.29v.21c0,8.74-6.27,15.88-15.3,15.88s-15.45-7.29-15.45-16v-.14a17.09,17.09,0,0,1,1-5.77c-3.84-.5-7.76-.92-11.73-1.25a26.45,26.45,0,0,0-1,7.16v.15c0,14.49,11.29,26.22,27,26.22,14.47,0,25.29-10,26.95-22.91Q370.63,288.91,364.68,287.29Z" transform="translate(-154.37 -236.35)" style="fill:#fff"/><path d="M295.27,293.18h11.3v7.28A17.85,17.85,0,0,1,296,303.53c-9,0-15.44-6.85-15.44-16.18v-.14a16.76,16.76,0,0,1,1.73-7.48q-3.17.18-6.36.43t-6.29.57a27.22,27.22,0,0,0-.81,6.62v.15c0,15.08,10.92,26.22,26.81,26.22a33.09,33.09,0,0,0,21.78-8.08V283.49H295.27Z" transform="translate(-154.37 -236.35)" style="fill:#fff"/><path d="M248.15,283.67q-5.7,1-11.22,2.19v27h31.86V302.29H248.15Z" transform="translate(-154.37 -236.35)" style="fill:#fff"/><path d="M183.7,303.87l-3.83,9h11.44l4.31-10.56H217.9l4.3,10.56h11.73l-10.12-23.8A224.61,224.61,0,0,0,183.7,303.87Z" transform="translate(-154.37 -236.35)" style="fill:#fff"/><path d="M201.61,287.53,206.76,275,211,285.41q5.08-1.08,10.36-2l-9.31-21.89H201.73l-12.46,29.27Q195.26,289.07,201.61,287.53Z" transform="translate(-154.37 -236.35)" style="fill:#fff"/><path d="M409.24,336.31v-.08a15.06,15.06,0,0,1,15.34-15.39,15.51,15.51,0,0,1,11.65,4.63l-3.36,3.87c-2.38-2.21-4.93-3.7-8.33-3.7-5.7,0-9.82,4.68-9.82,10.5v.09c0,5.82,4.12,10.58,9.82,10.58,3.66,0,6-1.49,8.54-3.87l3.36,3.4a15.34,15.34,0,0,1-12.07,5.27A15,15,0,0,1,409.24,336.31Z" transform="translate(-154.37 -236.35)" style="fill:#fff"/><path d="M439.19,336.31v-.08a15.56,15.56,0,0,1,31.11-.09v.09a15.56,15.56,0,0,1-31.11.08Zm25.62,0v-.08c0-5.78-4.2-10.59-10.11-10.59s-10,4.72-10,10.5v.09c0,5.78,4.21,10.58,10.12,10.58S464.81,342.09,464.81,336.31Z" transform="translate(-154.37 -236.35)" style="fill:#fff"/><path d="M475.69,321.35h5.23v25h15.64v4.76H475.69Z" transform="translate(-154.37 -236.35)" style="fill:#fff"/><path d="M502,321.35h5.22v25h15.64v4.76H502Z" transform="translate(-154.37 -236.35)" style="fill:#fff"/><path d="M528.24,321.35H550.3V326H533.47v7.73h14.91v4.68H533.47v8h17v4.67H528.24Z" transform="translate(-154.37 -236.35)" style="fill:#fff"/><path d="M555,336.31v-.08a15.16,15.16,0,0,1,15.34-15.39,16,16,0,0,1,11.43,4l-3.31,3.95a11.67,11.67,0,0,0-8.33-3.19c-5.48,0-9.65,4.81-9.65,10.5v.09c0,6.12,4,10.62,10.12,10.62a12.15,12.15,0,0,0,7.18-2.25V339h-7.61v-4.55h12.67V347a19,19,0,0,1-12.41,4.63C561.12,351.61,555,345,555,336.31Z" transform="translate(-154.37 -236.35)" style="fill:#fff"/><path d="M589.61,321.35h22V326H594.83v7.73h14.92v4.68H594.83v8h17v4.67H589.61Z" transform="translate(-154.37 -236.35)" style="fill:#fff"/></svg>