<svg xmlns="http://www.w3.org/2000/svg" viewBox="0 0 483 140.25" width="483" height="140.25"><path fill="none" d="M0 0h483v140.25H0z"/><path fill="#fff" d="M294.11 59.75a16.11 16.11 0 0 1-2.75-9.11v-.14c0-8.55 6.27-15.53 15.3-15.53h.15c9 0 15.3 7 15.3 15.53v.15a17.51 17.51 0 0 1-1.53 7.34l-3.08-2.71-6.93 7.92c6.05 1 12.32 1.78 18.76 2.31a25.29 25.29 0 0 0 4.52-14.5v-.14c0-14.5-11.29-26.24-27-26.24S279.63 36.5 279.63 51v.15a27.69 27.69 0 0 0 .36 4.4c4.5 1.56 9.22 2.96 14.12 4.2zm78.17 5.69q5.26-.44 10.43-1.06a29.92 29.92 0 0 0 1.57-10.1V25.5h-11.22v29.21c0 5.61-2 9.32-5.5 11.08 1.57-.14 3.14-.22 4.72-.35zm31.1-4.37V25.5h-11.23v37.58c3.81-.6 7.54-1.27 11.23-2.01zm19.88-4.88V44.08l7.47 9.81q5.42-1.78 10.54-3.77L422.53 25.5h-10.34v33.62q5.66-1.35 11.07-2.93zM357.7 66.25c-4.21-1.54-6.64-5.54-6.64-11.9V25.5h-11.22v29.15a28 28 0 0 0 2.21 11.59q7.71.23 15.65.01zm54.49-2.07V76.5h11.07V62.21q-5.46 1.07-11.07 1.97zm-20.04 2.69v9.63h11.23v-11q-5.55.75-11.23 1.37zm-11.71 1.09c-12.59 1-24.89 1.34-36.79 1.12 3.73 5.46 10 8.22 18.26 8.22 8.77 0 15.47-3.11 19.16-9.39zm-75.95-1.8h-.26q-11.6-1.58-22.22-3.93c4.11 9 13.2 15.18 24.65 15.18a28.1 28.1 0 0 0 15.22-4.44l8.06 7.19 7.18-8.13-3.9-3.25c-9.94-.5-19.59-1.38-28.73-2.62zm141.94-9.26q-5.53 1.47-11.27 2.8l12.8 16.8h9.55V53.73q-5.43 1.67-11.08 3.17zm0-31.4v22.54q5.75-2.42 11.08-5.08V25.5zM118.14 40.93q5.91-.36 11.71-.57a14.12 14.12 0 0 1 11-5.39c5.9 0 9.4 1.89 13.34 5.17l7.04-8.49c-5.32-4.52-10.85-7-20-7a26.23 26.23 0 0 0-24.84 16.42zm64.1.72a14.81 14.81 0 0 1 12.62-6.67 15.13 15.13 0 0 1 14.43 10.18q6.49 1.13 12.55 2.49c-1.53-13-12.28-23-26.83-23-11.8 0-21.18 6.68-25.14 16.12q6.3.33 12.37.88zm-88.46 1.42V25.5H82.56v19c3.68-.51 7.43-.99 11.22-1.43zM262.22 56.9l-23.9-31.4h-10.34v23.61c3.86 1 7.56 2 11.07 3.15v-8.18l24.7 32.42h9.55V60.1q-5.73-1.49-11.08-3.2zm-34.24 19.6h11.07v-15a146.26 146.26 0 0 0-11.07-4.81zm34.24-51v22.54q5.24 2.69 11.08 5V25.5zm-51.91 25.44v.21c0 8.74-6.27 15.88-15.3 15.88s-15.45-7.29-15.45-16v-.14a17.09 17.09 0 0 1 1-5.77c-3.84-.5-7.76-.92-11.73-1.25a26.45 26.45 0 0 0-1 7.16v.15c0 14.49 11.29 26.22 27 26.22 14.47 0 25.29-10 26.95-22.91q-5.52-1.93-11.47-3.55zm-69.41 5.89h11.3v7.28a17.85 17.85 0 0 1-10.57 3.07c-9 0-15.44-6.85-15.44-16.18v-.14a16.76 16.76 0 0 1 1.73-7.48q-3.17.18-6.36.43t-6.29.57a27.22 27.22 0 0 0-.81 6.62v.15c0 15.08 10.92 26.22 26.81 26.22a33.09 33.09 0 0 0 21.78-8.08V47.14H140.9zm-47.12-9.51q-5.7 1-11.22 2.19v27h31.86V65.94H93.78zm-64.45 20.2l-3.83 9h11.44l4.31-10.56h22.28l4.3 10.56h11.73l-10.12-23.8a224.61 224.61 0 0 0-40.11 14.8zm17.91-16.34l5.15-12.53 4.24 10.41q5.08-1.08 10.36-2l-9.31-21.89H47.36L34.9 54.44q5.99-1.72 12.34-3.26zm207.63 48.78v-.08a15.06 15.06 0 0 1 15.34-15.39 15.51 15.51 0 0 1 11.65 4.63l-3.36 3.87c-2.38-2.21-4.93-3.7-8.33-3.7-5.7 0-9.82 4.68-9.82 10.5v.09c0 5.82 4.12 10.58 9.82 10.58 3.66 0 6-1.49 8.54-3.87l3.36 3.4a15.34 15.34 0 0 1-12.07 5.27 15 15 0 0 1-15.13-15.3zm29.95 0v-.08a15.56 15.56 0 0 1 31.11-.09v.09a15.56 15.56 0 0 1-31.11.08zm25.62 0v-.08c0-5.78-4.2-10.59-10.11-10.59s-10 4.72-10 10.5v.09c0 5.78 4.21 10.58 10.12 10.58s9.99-4.72 9.99-10.5zM321.32 85h5.23v25h15.64v4.76h-20.87zm26.31 0h5.22v25h15.64v4.76h-20.86zm26.24 0h22.06v4.65H379.1v7.73h14.91v4.68H379.1v8h17v4.67h-22.23zm26.76 14.96v-.08a15.16 15.16 0 0 1 15.34-15.39 16 16 0 0 1 11.43 4l-3.31 3.95a11.67 11.67 0 0 0-8.33-3.19c-5.48 0-9.65 4.81-9.65 10.5v.09c0 6.12 4 10.62 10.12 10.62a12.15 12.15 0 0 0 7.18-2.25v-5.56h-7.61V98.1h12.67v12.55a19 19 0 0 1-12.41 4.63c-9.31-.02-15.43-6.63-15.43-15.32zM435.24 85h22v4.65h-16.78v7.73h14.92v4.68h-14.92v8h17v4.67h-22.22z"/></svg>