<svg xmlns="http://www.w3.org/2000/svg" viewBox="0 0 152.45 197.05" width="152.45" height="197.05"><path fill="#fff" d="M0 114.85c0 47.63 35.88 82.21 84.16 82.21 22.4 0 68.28-7.62 68.28-30.67v-55.67H88.07v33.49h22.62v6.09c0 6.09-11.74 7.61-19.79 7.61-28.71 0-42.41-18.92-42.41-45 0-26.75 14.14-38.28 39.37-38.28 11.74 0 19.35 2.62 19.35 8.27v11.31h41.75V65.92c0-19.58-35.66-30.45-64.15-30.45C35.44 35.47 0 67.66 0 114.85m42.54-97.11a8.87 8.87 0 1 0-8.86-8.87 8.87 8.87 0 0 0 8.86 8.87m37.05 0a8.87 8.87 0 1 0-8.87-8.87 8.87 8.87 0 0 0 8.87 8.87m37.05 0a8.87 8.87 0 1 0-8.87-8.87 8.87 8.87 0 0 0 8.87 8.87"/></svg>