<svg id="Layer_1" data-name="Layer 1" xmlns="http://www.w3.org/2000/svg" viewBox="0 0 152.45 197.05"><path d="M78.78,171.32c0,47.63,35.88,82.21,84.16,82.21,22.4,0,68.28-7.62,68.28-30.67V167.19H166.85v33.49h22.62v6.09c0,6.09-11.74,7.61-19.79,7.61-28.71,0-42.41-18.92-42.41-45,0-26.75,14.14-38.28,39.37-38.28,11.74,0,19.35,2.62,19.35,8.27v11.31h41.75V122.39c0-19.58-35.66-30.45-64.15-30.45-49.37,0-84.81,32.19-84.81,79.38" transform="translate(-78.78 -56.47)" style="fill:#fff"/><path d="M121.32,74.21a8.87,8.87,0,1,0-8.86-8.87,8.87,8.87,0,0,0,8.86,8.87" transform="translate(-78.78 -56.47)" style="fill:#fff"/><path d="M158.37,74.21a8.87,8.87,0,1,0-8.87-8.87,8.87,8.87,0,0,0,8.87,8.87" transform="translate(-78.78 -56.47)" style="fill:#fff"/><path d="M195.42,74.21a8.87,8.87,0,1,0-8.87-8.87,8.87,8.87,0,0,0,8.87,8.87" transform="translate(-78.78 -56.47)" style="fill:#fff"/></svg>