<svg xmlns="http://www.w3.org/2000/svg" viewBox="0 0 560 100.34" width="560" height="100.34"><path fill="#fff" d="M89.65 27.84A28 28 0 0 0 75.15 32V12.32a2.51 2.51 0 0 0-2.77-2.83H62.14a2.54 2.54 0 0 0-2.82 2.83v66.42a2.51 2.51 0 0 0 2.82 2.82h10.22a2.5 2.5 0 0 0 2.81-2.82V46.55c0-3.78 4.73-6.17 9.79-6.17 3.2 0 5.54.71 7 2.1a7.29 7.29 0 0 1 1.82 5.47v30.79a2.5 2.5 0 0 0 2.81 2.82h10.21a2.49 2.49 0 0 0 2.79-2.82v-30.7c0-14.14-8.54-20.2-19.94-20.2M31 38.39c-11.62-3.69-13.44-6-13.44-9.77s3.69-5.77 10-5.77c5.92 0 13.93 1.92 16.63 2.51 2.08.45 3.08-.69 3.08-2.27v-7c0-1.47-.5-2.81-2.72-3.55a56.62 56.62 0 0 0-18.83-2.57C13.84 10.13 1.4 15.24 1.4 29.83c0 10.88 6.62 17.06 21.05 21.53 10.43 3.22 13.84 6.29 13.82 10.48 0 4.4-3.88 6.86-12.42 6.86-8.94 0-17.29-3.46-20.65-4.28-2.11-.52-3.17.45-3.17 2.12v8.05c0 2.22 1.61 3.14 3.19 3.76a59.7 59.7 0 0 0 20.6 3.82H24c19.07 0 28.31-7.93 28.36-21.13.1-14.4-9.2-18.75-21.33-22.61M263 .88a6.17 6.17 0 0 0-2.65-.88c-1.51 0-2.34.92-2.34 2.65v10.52a3.11 3.11 0 0 0 1.32 2.79l.79.54a40.32 40.32 0 0 1 0 67.28l-.79.54a3.13 3.13 0 0 0-1.33 2.85V97.7c0 1.7.83 2.65 2.34 2.65a6.26 6.26 0 0 0 2.65-.88 55.58 55.58 0 0 0 0-98.58m-113.43 69.1a35.21 35.21 0 0 1-9.18 1.33c-6 0-9-2.46-9-6.11s2.6-6.6 10.36-6.6a23.18 23.18 0 0 1 7.88 1.26v10.12zm-9.25-42.17a57.35 57.35 0 0 0-15.66 2.2 3.37 3.37 0 0 0-2.67 3.5v6.27c0 1.44 1 2.65 3.55 2.05a64.46 64.46 0 0 1 13.72-1.86c6.74 0 10.34 3.14 10.34 8v1.79a44 44 0 0 0-10.48-1.27c-14 0-22.76 6.31-22.76 17.76 0 9.82 7.43 16.87 22.31 16.87h3c8 0 17.32-2.42 19.92-3.13 1-.28 2.93-.8 2.93-3.07V50.67c0-8.64-1.51-13.41-5.25-17.08s-9.81-5.77-18.9-5.77m103.7 1.61h-9.2a2.52 2.52 0 0 0-2.82 2.83v30.47c0 3.41-2 6.84-7.64 6.84-3.74 0-7.24-1.71-7.24-5.07V32.24a2.52 2.52 0 0 0-2.81-2.84h-9.2a2.53 2.53 0 0 0-2.82 2.84V64.5c0 3.6-3.64 5.07-7.57 5.07-5.6 0-7.28-3.32-7.28-6.84V32.26a2.52 2.52 0 0 0-2.82-2.83h-9.2a2.51 2.51 0 0 0-2.81 2.83v31.65c0 11.95 8.66 18.52 21.17 18.52a26.62 26.62 0 0 0 15.92-4.87A25.21 25.21 0 0 0 225 82.5c12.53 0 21.85-5.18 21.85-18.59V32.26a2.51 2.51 0 0 0-2.81-2.83m86.76 26.23c0-16.42 11.07-27.58 27.13-27.58a34.89 34.89 0 0 1 12.13 1.8 2.55 2.55 0 0 1 2 2.79v2.65c0 1.27-1 1.89-2.41 1.51a40.12 40.12 0 0 0-11.75-2c-12.07 0-19.07 8.75-19.07 20.48 0 11.31 6 20.27 19.59 20.27a40.14 40.14 0 0 0 12.13-2c2-.59 2.65.3 2.65 1.35v2.86c0 1.51-.83 2.1-2 2.55a37.19 37.19 0 0 1-13.42 2.18c-16.06.05-26.91-9.46-26.91-26.87m54.33 2.59H407c0-6-3.54-10.48-10.38-10.48-7 0-10.81 4.44-11.4 10.48m29.07 3.52a2.29 2.29 0 0 1-2.55 2.18l-26.59.07c.45 7.54 5.34 12.34 14.17 12.34a31.07 31.07 0 0 0 10-1.58c2-.59 2.65.31 2.55 1.35v2.1a2.53 2.53 0 0 1-1.89 2.72 36 36 0 0 1-11.07 1.66c-13 0-21.24-7.24-21.24-20.65 0-12 6.86-20.2 19.13-20.2 10.77 0 17.63 6.1 17.63 17.86a14.54 14.54 0 0 1-.17 2.15m44.03-5.35v23.35a1.93 1.93 0 0 1-2.18 2.11h-3.17c-1.42 0-2-.69-2-2.11V56.93c0-4.06-1.58-8.44-9.58-8.44-6.62 0-10.55 3.24-10.55 8v23.27a1.9 1.9 0 0 1-2.17 2.11h-3.1a1.88 1.88 0 0 1-2.11-2.11V45.11a1.9 1.9 0 0 1 2.11-2.11h3.1a1.91 1.91 0 0 1 2.1 2.11v1.8a18 18 0 0 1 12.65-4.83c8 0 14.86 3.95 14.86 14.33m33.25 20.76v2.17c0 1.28-.45 1.73-1.66 2.11a23.64 23.64 0 0 1-6.93 1c-8.28 0-12.2-3.93-12.2-12.82V49.17h-3.17a1.85 1.85 0 0 1-2.11-2v-2.18c0-1.35.69-2 2.11-2h3.17v-9a1.92 1.92 0 0 1 2.17-2.1H476c1.45 0 2.18.68 2.18 2.1v9h9.72c1.44 0 2.18.68 2.18 2v2.18c0 1.35-.76 2-2.18 2h-9.72v20c0 4.75 2 6.93 5.65 6.93 1.89 0 4.66-.52 5.58-.59 1.9-.12 2.11.63 2.11 1.75m14.15 2.52c0 1.42-.69 2.11-2.18 2.11h-3c-1.45 0-2.18-.69-2.18-2.11V45.17a1.92 1.92 0 0 1 2.11-2.17h2.65a1.92 1.92 0 0 1 2.1 2.17v2.86a10.6 10.6 0 0 1 9.86-6 10.74 10.74 0 0 1 2.94.31 1.88 1.88 0 0 1 1.58 2.18v2.65c0 1.27-.52 2-2 2-.9 0-2-.07-3-.07-5.58 0-8.89 4.3-8.89 10.69v20zm25.09-21.54h21.79c0-6-3.55-10.48-10.41-10.48-7 0-10.78 4.44-11.38 10.48m29.07 3.52a2.28 2.28 0 0 1-2.55 2.18l-26.59.07c.45 7.54 5.35 12.34 14.17 12.34a31 31 0 0 0 10-1.58c2-.59 2.65.31 2.56 1.35v2.1a2.53 2.53 0 0 1-1.9 2.72 36 36 0 0 1-11.07 1.66c-13 0-21.24-7.24-21.24-20.65 0-12 6.86-20.2 19.14-20.2 10.78 0 17.62 6.1 17.62 17.86a16 16 0 0 1-.17 2.15"/></svg>