<?xml version="1.0" encoding="utf-8"?>
<!-- Generator: Adobe Illustrator 24.2.1, SVG Export Plug-In . SVG Version: 6.00 Build 0)  -->
<svg version="1.1" id="Layer_1" xmlns="http://www.w3.org/2000/svg" xmlns:xlink="http://www.w3.org/1999/xlink" x="0px" y="0px"
	 viewBox="0 0 128 128" style="enable-background:new 0 0 128 128;" xml:space="preserve">
<style type="text/css">
	.st0{fill:#FFFFFF;}
</style>
<path class="st0" d="M64,0C28.7,0,0,28.7,0,64s28.7,64,64,64s64-28.7,64-64S99.3,0,64,0z"/>
<path d="M95,58.5c-7,14.9-23.8,35.2-34.4,35.2c-10.5,0-12-22.4-17.7-37.2c-2.8-7.3-4.6-5.6-9.9-1.9l-3.2-4.2
	c7.7-6.8,15.4-14.6,20.1-15.1c5.3-0.5,8.6,3.1,9.8,10.9c1.6,10.3,3.9,26.2,7.9,26.2c3.1,0,10.7-12.6,11.1-17.1
	c0.7-6.6-4.9-6.8-9.7-4.7C76.6,25.5,108.3,30.1,95,58.5z"/>
</svg>
