<?xml version="1.0" encoding="utf-8"?>
<!-- Generator: Adobe Illustrator 24.1.3, SVG Export Plug-In . SVG Version: 6.00 Build 0)  -->
<svg version="1.1" id="Outline" xmlns="http://www.w3.org/2000/svg" xmlns:xlink="http://www.w3.org/1999/xlink" x="0px" y="0px"
	 viewBox="0 0 512 512" style="enable-background:new 0 0 512 512;" xml:space="preserve">
<style type="text/css">
	.st0{fill:#BDAB64;}
</style>
<path class="st0" d="M488,232H328v-64c0-7.5-3.6-14.7-9.6-19.2l-32-24c-10.6-8-25.6-5.8-33.6,4.8c-3.1,4.2-4.8,9.2-4.8,14.4v95.1
	c-23.3-33.4-61.2-55.1-104-55.1c-70.6,0-128,59.2-128,132c-0.1,27.1,8.1,53.6,23.3,76H24c-4.4,0-8,3.6-8,8v48c0,13.2,10.8,24,24,24
	h448c4.4,0,8-3.6,8-8V240C496,235.6,492.4,232,488,232L488,232z M480,248v16H328v-16L480,248z M352,312c8.8,0,16,7.2,16,16
	s-7.2,16-16,16s-16-7.2-16-16C336,319.1,343.2,312,352,312z M264,392h-15.3c13-19,20.8-41,22.8-64l48.5,0v120c0,4.4-3.5,7.9-7.8,8
	h-41.5c0.9-2.6,1.4-5.3,1.4-8v-48C272,395.6,268.4,392,264,392L264,392z M313.8,296l4,16l-45.8,0c-0.2-5.4-0.6-10.7-1.4-16
	L313.8,296z M268.4,136.9c2.7-1.4,6-1.1,8.4,0.8l32,24c2,1.5,3.2,3.9,3.2,6.4v48h-48v-72C264,141,265.7,138.2,268.4,136.9
	L268.4,136.9z M264,232h48v48h-44.8c-0.9-3.4-2-6.7-3.2-9.9V232z M32,316c0-64,50.2-116,112-116s112,52,112,116
	c0.1,27.8-9.6,54.7-27.4,76H197c44.2-29.3,56.3-88.8,27-133s-88.8-56.3-133-27s-56.3,88.8-27,133c7.1,10.7,16.3,19.9,27,27H59.4
	C41.6,370.7,31.9,343.7,32,316z M120,408h48v8c0,4.4-3.6,8-8,8h-32c-4.4,0-8-3.6-8-8V408z M144,392c-44.2,0-80-35.8-80-80
	s35.8-80,80-80s80,35.8,80,80C223.9,356.1,188.2,391.9,144,392z M32,448v-40h72v8c0,13.2,10.8,24,24,24h32c13.2,0,24-10.8,24-24v-8
	h72v40c0,4.4-3.6,8-8,8H40C35.6,456,32,452.4,32,448z M334.6,456c0.9-2.6,1.4-5.3,1.4-8v-12.3c15.3,8.9,34.9,3.6,43.7-11.7
	c8.9-15.3,3.6-34.9-11.7-43.7c-9.9-5.7-22.1-5.7-32.1,0v-24.6c15.3,8.9,34.9,3.6,43.7-11.7c8.9-15.3,3.6-34.9-11.7-43.7
	c-11.4-6.6-25.8-5.5-36.1,2.7l-4-16v-7h152v176L334.6,456z M336,408c0-8.8,7.2-16,16-16s16,7.2,16,16s-7.2,16-16,16
	C343.2,424,336,416.8,336,408z"/>
<path class="st0" d="M432,296c-17.7,0-32,14.3-32,32s14.3,32,32,32s32-14.3,32-32C464,310.3,449.7,296,432,296z M432,344
	c-8.8,0-16-7.2-16-16s7.2-16,16-16s16,7.2,16,16C448,336.8,440.8,344,432,344z"/>
<path class="st0" d="M432,376c-17.7,0-32,14.3-32,32s14.3,32,32,32s32-14.3,32-32C464,390.3,449.7,376,432,376z M432,424
	c-8.8,0-16-7.2-16-16s7.2-16,16-16s16,7.2,16,16C448,416.8,440.8,424,432,424z"/>
</svg>
