<svg xmlns="http://www.w3.org/2000/svg" id="Outline" viewBox="0 0 512 512" width="512" height="512"><style>.st0{fill:#bdab64}</style><path d="M488 232H328v-64c0-7.5-3.6-14.7-9.6-19.2l-32-24c-10.6-8-25.6-5.8-33.6 4.8-3.1 4.2-4.8 9.2-4.8 14.4v95.1c-23.3-33.4-61.2-55.1-104-55.1-70.6 0-128 59.2-128 132-.1 27.1 8.1 53.6 23.3 76H24c-4.4 0-8 3.6-8 8v48c0 13.2 10.8 24 24 24h448c4.4 0 8-3.6 8-8V240c0-4.4-3.6-8-8-8zm-8 16v16H328v-16h152zm-128 64c8.8 0 16 7.2 16 16s-7.2 16-16 16-16-7.2-16-16c0-8.9 7.2-16 16-16zm-88 80h-15.3c13-19 20.8-41 22.8-64H320v120c0 4.4-3.5 7.9-7.8 8h-41.5c.9-2.6 1.4-5.3 1.4-8v-48c-.1-4.4-3.7-8-8.1-8zm49.8-96l4 16H272c-.2-5.4-.6-10.7-1.4-16h43.2zm-45.4-159.1c2.7-1.4 6-1.1 8.4.8l32 24c2 1.5 3.2 3.9 3.2 6.4v48h-48v-72c0-3.1 1.7-5.9 4.4-7.2zM264 232h48v48h-44.8c-.9-3.4-2-6.7-3.2-9.9V232zM32 316c0-64 50.2-116 112-116s112 52 112 116c.1 27.8-9.6 54.7-27.4 76H197c44.2-29.3 56.3-88.8 27-133s-88.8-56.3-133-27-56.3 88.8-27 133c7.1 10.7 16.3 19.9 27 27H59.4c-17.8-21.3-27.5-48.3-27.4-76zm88 92h48v8c0 4.4-3.6 8-8 8h-32c-4.4 0-8-3.6-8-8v-8zm24-16c-44.2 0-80-35.8-80-80s35.8-80 80-80 80 35.8 80 80c-.1 44.1-35.8 79.9-80 80zM32 448v-40h72v8c0 13.2 10.8 24 24 24h32c13.2 0 24-10.8 24-24v-8h72v40c0 4.4-3.6 8-8 8H40c-4.4 0-8-3.6-8-8zm302.6 8c.9-2.6 1.4-5.3 1.4-8v-12.3c15.3 8.9 34.9 3.6 43.7-11.7 8.9-15.3 3.6-34.9-11.7-43.7-9.9-5.7-22.1-5.7-32.1 0v-24.6c15.3 8.9 34.9 3.6 43.7-11.7 8.9-15.3 3.6-34.9-11.7-43.7-11.4-6.6-25.8-5.5-36.1 2.7l-4-16v-7h152v176H334.6zm1.4-48c0-8.8 7.2-16 16-16s16 7.2 16 16-7.2 16-16 16-16-7.2-16-16z" class="st0"/><path d="M432 296c-17.7 0-32 14.3-32 32s14.3 32 32 32 32-14.3 32-32-14.3-32-32-32zm0 48c-8.8 0-16-7.2-16-16s7.2-16 16-16 16 7.2 16 16-7.2 16-16 16zm0 32c-17.7 0-32 14.3-32 32s14.3 32 32 32 32-14.3 32-32-14.3-32-32-32zm0 48c-8.8 0-16-7.2-16-16s7.2-16 16-16 16 7.2 16 16-7.2 16-16 16z" class="st0"/></svg>