<svg id="Layer_1" data-name="Layer 1" xmlns="http://www.w3.org/2000/svg" viewBox="0 0 756 240.62"><path d="M61.61,8.65l58.78,166,58.46-166h61.92V237.48h-47.3V174.92l4.71-108L136.42,237.48H104L42.43,67.11l4.72,107.81v62.56H0V8.65Z" transform="translate(0 0)"/><path d="M259.34,23.42A22.36,22.36,0,0,1,266.18,6.6Q273,0,284.8,0q11.63,0,18.54,6.6a22.25,22.25,0,0,1,6.92,16.82q0,10.36-7,17T284.79,47q-11.48,0-18.47-6.6T259.34,23.42Zm48.25,214.06H262V67.42h45.58Z" transform="translate(0 0)"/><path d="M512.7,203.21q-10.22,0-13.83-4.08t-3.62-13.52V100.74h29.08V67.42H495.25V25.62H449.83v41.8H399.37V25.62H354v41.8H329.12v33.32H354v91.63q.94,48.26,48.72,48.25a93.19,93.19,0,0,0,27.5-4.09V202.11a72,72,0,0,1-13.35,1.1q-10.23,0-13.83-4.08t-3.62-13.52V100.74h50.46v91.63q.94,48.26,48.72,48.25a93.26,93.26,0,0,0,27.51-4.09V202.11A71.82,71.82,0,0,1,512.7,203.21Z" transform="translate(0 0)"/><path d="M641.73,190.48q0-8.32-8.25-13.12T607,168.8q-60.68-12.74-60.67-51.55,0-22.64,18.78-37.8t49.12-15.14q32.37,0,51.78,15.25t19.41,39.6H640a22,22,0,0,0-6.29-16.11q-6.29-6.36-19.64-6.36-11.48,0-17.76,5.18A16.4,16.4,0,0,0,590,115.05q0,7.53,7.15,12.18t24.13,8a196.35,196.35,0,0,1,28.6,7.62q36,13.2,36,45.74,0,23.26-20,37.64t-51.55,14.38q-21.37,0-38-7.62t-26-20.91A48.59,48.59,0,0,1,541,183.41h43.06q.63,12.1,9,18.55t22.32,6.44q13,0,19.72-5A15.42,15.42,0,0,0,641.73,190.48Z" transform="translate(0 0)"/><path d="M704.61,215.16q0-10.84,7.31-17.6t18.31-6.76q11.14,0,18.46,6.76t7.31,17.6q0,10.68-7.23,17.36t-18.54,6.68q-11.18,0-18.39-6.68T704.61,215.16Z" transform="translate(0 0)"/></svg>