<?xml version="1.0" encoding="utf-8"?>
<!-- Generator: Adobe Illustrator 24.2.0, SVG Export Plug-In . SVG Version: 6.00 Build 0)  -->
<svg version="1.1" id="Layer_1" xmlns="http://www.w3.org/2000/svg" xmlns:xlink="http://www.w3.org/1999/xlink" x="0px" y="0px"
	 viewBox="0 0 756 240.6" style="enable-background:new 0 0 756 240.6;" xml:space="preserve">
<style type="text/css">
	.st0{fill:#FFFFFF;}
</style>
<path class="st0" d="M61.6,8.6l58.8,166l58.5-166h61.9v228.8h-47.3v-62.6l4.7-108l-61.8,170.6H104L42.4,67.1l4.7,107.8v62.6H0V8.6
	H61.6z M259.3,23.4c-0.2-6.3,2.3-12.4,6.8-16.8S276.9,0,284.7,0c7.8,0,13.9,2.2,18.5,6.6s7.1,10.5,6.9,16.8c0,6.9-2.3,12.6-7,17
	S292.4,47,284.8,47c-7.7,0-13.8-2.2-18.5-6.6S259.3,30.3,259.3,23.4z M307.6,237.5H262V67.4h45.6L307.6,237.5L307.6,237.5z
	 M512.7,203.2c-6.8,0-11.4-1.4-13.8-4.1c-2.4-2.7-3.6-7.2-3.6-13.5v-84.9h29.1V67.4h-29.1V25.6h-45.4v41.8h-50.5V25.6H354v41.8
	h-24.9v33.3H354v91.6c0.6,32.2,16.9,48.3,48.7,48.3c9.3,0,18.6-1.4,27.5-4.1v-34.4c-4.4,0.8-8.9,1.1-13.4,1.1
	c-6.8,0-11.4-1.4-13.8-4.1c-2.4-2.7-3.6-7.2-3.6-13.5v-84.9h50.5v91.6c0.6,32.2,16.9,48.3,48.7,48.3c9.3,0,18.6-1.4,27.5-4.1v-34.4
	C521.7,202.9,517.2,203.3,512.7,203.2L512.7,203.2z M641.7,190.5c0-5.5-2.8-9.9-8.3-13.1c-5.5-3.2-14.3-6.1-26.5-8.6
	c-40.5-8.5-60.7-25.7-60.7-51.6c0-15.1,6.3-27.7,18.8-37.8s28.9-15.2,49.1-15.1c21.6,0,38.8,5.1,51.8,15.3s19.4,23.4,19.4,39.6H640
	c0.2-6-2.1-11.8-6.3-16.1c-4.2-4.2-10.7-6.4-19.6-6.4c-7.7,0-13.6,1.7-17.8,5.2c-4.1,3.2-6.4,8-6.3,13.2c0,5,2.4,9.1,7.2,12.2
	c4.8,3.1,12.8,5.8,24.1,8c9.7,1.8,19.3,4.4,28.6,7.6c24,8.8,36,24,36,45.7c0,15.5-6.7,28.1-20,37.6c-13.3,9.6-30.5,14.4-51.5,14.4
	c-14.2,0-26.9-2.5-38-7.6s-19.8-12.1-26-20.9c-6.1-8.3-9.3-18.4-9.3-28.7h43.1c0.4,8.1,3.4,14.3,9,18.6s13,6.4,22.3,6.4
	c8.7,0,15.2-1.7,19.7-5C639.3,200.5,641.8,195.6,641.7,190.5L641.7,190.5z M704.6,215.2c0-7.2,2.4-13.1,7.3-17.6
	c4.9-4.5,11-6.8,18.3-6.8c7.4,0,13.6,2.3,18.5,6.8s7.3,10.4,7.3,17.6c0,7.1-2.4,12.9-7.2,17.4s-11,6.7-18.5,6.7s-13.6-2.2-18.4-6.7
	C707,228.1,704.6,222.3,704.6,215.2L704.6,215.2z"/>
</svg>
