<svg xmlns="http://www.w3.org/2000/svg" viewBox="0 0 756 240.62" width="756" height="240.62"><path d="M61.61 8.65l58.78 166 58.46-166h61.92v228.83h-47.3v-62.56l4.71-108-61.76 170.56H104L42.43 67.11l4.72 107.81v62.56H0V8.65zm197.73 14.77a22.36 22.36 0 0 1 6.84-16.82Q273 0 284.8 0q11.63 0 18.54 6.6a22.25 22.25 0 0 1 6.92 16.82q0 10.36-7 17T284.79 47q-11.48 0-18.47-6.6t-6.98-16.98zm48.25 214.06H262V67.42h45.58zm205.11-34.27q-10.22 0-13.83-4.08t-3.62-13.52v-84.87h29.08V67.42h-29.08v-41.8h-45.42v41.8h-50.46v-41.8H354v41.8h-24.88v33.32H354v91.63q.94 48.26 48.72 48.25a93.19 93.19 0 0 0 27.5-4.09v-34.42a72 72 0 0 1-13.35 1.1q-10.23 0-13.83-4.08t-3.62-13.52v-84.87h50.46v91.63q.94 48.26 48.72 48.25a93.26 93.26 0 0 0 27.51-4.09v-34.42a71.82 71.82 0 0 1-13.41 1.1zm129.03-12.73q0-8.32-8.25-13.12T607 168.8q-60.68-12.74-60.67-51.55 0-22.64 18.78-37.8t49.12-15.14q32.37 0 51.78 15.25t19.41 39.6H640a22 22 0 0 0-6.29-16.11q-6.29-6.36-19.64-6.36-11.48 0-17.76 5.18a16.4 16.4 0 0 0-6.31 13.18q0 7.53 7.15 12.18t24.13 8a196.35 196.35 0 0 1 28.6 7.62q36 13.2 36 45.74 0 23.26-20 37.64t-51.55 14.38q-21.37 0-38-7.62t-26-20.91a48.59 48.59 0 0 1-9.33-28.67h43.06q.63 12.1 9 18.55t22.32 6.44q13 0 19.72-5a15.42 15.42 0 0 0 6.63-12.92zm62.88 24.68q0-10.84 7.31-17.6t18.31-6.76q11.14 0 18.46 6.76t7.31 17.6q0 10.68-7.23 17.36t-18.54 6.68q-11.18 0-18.39-6.68t-7.23-17.36z"/></svg>