<svg xmlns="http://www.w3.org/2000/svg" id="Capa_1" viewBox="0 0 512 512" width="512" height="512"><style>.st0{fill:#bdab64}</style><path d="M498.7 34.3H13.3C6 34.3 0 40.3 0 47.6v306.7c0 7.3 6 13.3 13.3 13.3h206.6c3.5 6.8 5.8 14.2 6.9 21.9h-74.5c-4.7 0-9.1 2.4-11.6 6.4l-26.1 42.3c-1.3 2.1-2 4.6-2 7.1V464c0 7.5 6.1 13.6 13.6 13.6h259.5c7.5 0 13.6-6.1 13.6-13.6v-18.7c0-2.5-.7-5-2-7.1l-26.1-42.3c-2.5-4-6.8-6.4-11.6-6.4h-74.5c1-7.6 3.3-15 6.9-21.9h134.1c4.1 0 7.5-3.4 7.5-7.5s-3.4-7.5-7.5-7.5H15V49.3h482v303.3h-35.8c-4.1 0-7.5 3.4-7.5 7.5s3.4 7.5 7.5 7.5h37.5c7.3 0 13.3-6 13.3-13.3V47.6c0-7.3-6-13.3-13.3-13.3zM378.4 436.2H209.6c-4.1 0-7.5 3.4-7.5 7.5s3.4 7.5 7.5 7.5h174.7v11.5H127.7v-11.5h47c4.1 0 7.5-3.4 7.5-7.5s-3.4-7.5-7.5-7.5h-41l19.5-31.7h74.3v10.2c0 4.9 3.3 9.2 8 10.5 13.5 3.7 27.8 3.7 41.2 0 4.7-1.3 8-5.6 8-10.5v-10.2H359l19.4 31.7zm-102.8-68.6c-3.9 9.7-6 20.2-6 30.7v13.2c-9 2-18.3 2-27.3 0v-13.2c0-10.6-2-21-6-30.7h39.3z" class="st0"/><path d="M51.9 74.3c4.1 0 7.5-3.4 7.5-7.5s-3.4-7.5-7.5-7.5H33.5c-4.7 0-8.5 3.8-8.5 8.5V334c0 4.7 3.8 8.5 8.5 8.5h444.9c4.7 0 8.5-3.8 8.5-8.5V67.8c0-4.7-3.8-8.5-8.5-8.5H86.9c-4.1 0-7.5 3.4-7.5 7.5s3.4 7.5 7.5 7.5H472v253.3H40V74.3h11.9z" class="st0"/></svg>